# xmcd
#
# Track frame offsets: 
#        150
#        17026
#        34954
#        53176
#        72311
#        87057
#        103867
#        121225
#        140200
#        168287
#        188368
#        209851
#        228849
#        251079
#        269050
#
# Disc length: 3751 seconds
#
# Revision: 0
# Processed by: cddbd v1.5.2PL0 Copyright (c) Steve Scherf et al.
# Submitted via: ExactAudioCopyFreeDBPlugin 1.0
#
DISCID=dd0ea50f
DTITLE=宋祖英 - 宋祖英-最美的歌唱 CD1
DYEAR=1900
DGENRE=中文流行曲
TTITLE0=大地飞歌
TTITLE1=我爱你巴颜喀拉
TTITLE2=美丽的心情
TTITLE3=龙船调
TTITLE4=辣妹子
TTITLE5=十八弯水路到我家
TTITLE6=家乡有条猛洞河
TTITLE7=十送红军
TTITLE8=筒花谣
TTITLE9=古丈茶歌
TTITLE10=苗山明月
TTITLE11=红头船
TTITLE12=月下情歌
TTITLE13=弯弯的歌
TTITLE14=土家喜爱咚咚亏
EXTD=
EXTT0=
EXTT1=
EXTT2=
EXTT3=
EXTT4=
EXTT5=
EXTT6=
EXTT7=
EXTT8=
EXTT9=
EXTT10=
EXTT11=
EXTT12=
EXTT13=
EXTT14=
PLAYORDER=
